<svg width="76" height="25" viewBox="0 0 76 25" fill="none" xmlns="http://www.w3.org/2000/svg">
<g filter="url(#filter0_d)">
<path d="M15.76 16H11.752L11.296 13.648H8.464L8.008 16H4.192L6.928 1.096H13.024L15.76 16ZM10.84 10.84L10 5.512H9.832L8.992 10.84H10.84ZM27.4971 11.704C27.4971 14.568 25.9611 16 22.8891 16H17.0091V1.096H22.7691C24.2891 1.096 25.4171 1.408 26.1531 2.032C26.8891 2.64 27.2571 3.616 27.2571 4.96C27.2571 6.304 26.7051 7.328 25.6011 8.032V8.176C26.8651 8.672 27.4971 9.848 27.4971 11.704ZM21.9291 13.336C22.4091 13.336 22.7291 13.232 22.8891 13.024C23.0651 12.8 23.1531 12.352 23.1531 11.68C23.1531 10.992 23.0651 10.512 22.8891 10.24C22.7131 9.952 22.3931 9.808 21.9291 9.808H21.1611V13.336H21.9291ZM21.9531 7.48C22.3211 7.48 22.5771 7.368 22.7211 7.144C22.8651 6.92 22.9371 6.528 22.9371 5.968C22.9371 5.392 22.8571 4.992 22.6971 4.768C22.5531 4.528 22.2971 4.408 21.9291 4.408H21.1611V7.48H21.9531ZM39.5959 16H35.5879L35.1319 13.648H32.2999L31.8439 16H28.0279L30.7639 1.096H36.8599L39.5959 16ZM34.6759 10.84L33.8359 5.512H33.6679L32.8279 10.84H34.6759ZM40.1731 5.584C40.1731 4.16 40.5891 3.016 41.4211 2.152C42.2531 1.288 43.3891 0.855999 44.8291 0.855999C46.2851 0.855999 47.7731 0.999999 49.2931 1.288L48.8131 5.128C47.2291 4.76 46.1411 4.576 45.5491 4.576C44.7971 4.576 44.4211 4.88 44.4211 5.488C44.4211 5.728 44.5971 5.96 44.9491 6.184C45.3171 6.408 45.7571 6.648 46.2691 6.904C46.7811 7.144 47.2931 7.44 47.8051 7.792C48.3171 8.128 48.7491 8.616 49.1011 9.256C49.4691 9.896 49.6531 10.632 49.6531 11.464C49.6531 12.984 49.2451 14.16 48.4291 14.992C47.6131 15.824 46.4531 16.24 44.9491 16.24C43.4611 16.24 42.0051 16.008 40.5811 15.544L40.8451 11.968C42.5571 12.464 43.7491 12.712 44.4211 12.712C45.0931 12.712 45.4291 12.416 45.4291 11.824C45.4291 11.52 45.2451 11.24 44.8771 10.984C44.5251 10.728 44.0931 10.472 43.5811 10.216C43.0691 9.96 42.5491 9.664 42.0211 9.328C41.5091 8.992 41.0691 8.504 40.7011 7.864C40.3491 7.224 40.1731 6.464 40.1731 5.584ZM61.1673 1.096L57.6153 11.392V16H53.5353V11.392L50.0312 1.096H54.5433L55.6233 5.944H55.8153L56.8473 1.096H61.1673ZM61.5481 5.584C61.5481 4.16 61.9641 3.016 62.7961 2.152C63.6281 1.288 64.7641 0.855999 66.2041 0.855999C67.6601 0.855999 69.1481 0.999999 70.6681 1.288L70.1881 5.128C68.6041 4.76 67.5161 4.576 66.9241 4.576C66.1721 4.576 65.7961 4.88 65.7961 5.488C65.7961 5.728 65.9721 5.96 66.3241 6.184C66.6921 6.408 67.1321 6.648 67.6441 6.904C68.1561 7.144 68.6681 7.44 69.1801 7.792C69.6921 8.128 70.1241 8.616 70.4761 9.256C70.8441 9.896 71.0281 10.632 71.0281 11.464C71.0281 12.984 70.6201 14.16 69.8041 14.992C68.9881 15.824 67.8281 16.24 66.3241 16.24C64.8361 16.24 63.3801 16.008 61.9561 15.544L62.2201 11.968C63.9321 12.464 65.1241 12.712 65.7961 12.712C66.4681 12.712 66.8041 12.416 66.8041 11.824C66.8041 11.52 66.6201 11.24 66.2521 10.984C65.9001 10.728 65.4681 10.472 64.9561 10.216C64.4441 9.96 63.9241 9.664 63.3961 9.328C62.8841 8.992 62.4441 8.504 62.0761 7.864C61.7241 7.224 61.5481 6.464 61.5481 5.584Z" fill="white"/>
</g>
<defs>
<filter id="filter0_d" x="0.192017" y="0.855988" width="74.8361" height="23.384" filterUnits="userSpaceOnUse" color-interpolation-filters="sRGB">
<feFlood flood-opacity="0" result="BackgroundImageFix"/>
<feColorMatrix in="SourceAlpha" type="matrix" values="0 0 0 0 0 0 0 0 0 0 0 0 0 0 0 0 0 0 127 0"/>
<feOffset dy="4"/>
<feGaussianBlur stdDeviation="2"/>
<feColorMatrix type="matrix" values="0 0 0 0 0 0 0 0 0 0 0 0 0 0 0 0 0 0 0.25 0"/>
<feBlend mode="normal" in2="BackgroundImageFix" result="effect1_dropShadow"/>
<feBlend mode="normal" in="SourceGraphic" in2="effect1_dropShadow" result="shape"/>
</filter>
</defs>
</svg>
