<svg width="503" height="492" viewBox="0 0 503 492" fill="none" xmlns="http://www.w3.org/2000/svg">
<path d="M345.439 54.0527H8.35059V100.898H345.439V54.0527Z" fill="#FDE21B"/>
<path d="M225.711 133.33H96.7686V180.176H225.711V133.33Z" fill="#FF6969"/>
<path d="M426.489 293.682H306.761V340.527H426.489V293.682Z" fill="#FDE21B"/>
<path d="M371.228 372.959H218.343V419.805H371.228V372.959Z" fill="#00A1DA"/>
<path d="M492.802 214.404H144.662V261.25H492.802V214.404Z" fill="#00A1DA"/>
<path d="M185.187 367.559H8.35059V482.871H185.187V367.559Z" fill="white"/>
<path d="M104.137 367.559H8.35059V482.871H104.137V367.559Z" fill="#B9ECFF"/>
<path d="M266.192 28.6086L266.237 469.419L280.974 469.418L280.928 28.6071L266.192 28.6086Z" fill="#FE3934"/>
<path d="M280.973 477.586H266.236V492H280.973V477.586Z" fill="black"/>
<path d="M352.812 108.105H295.709V93.6914H338.076V64.8633H295.709V50.4492H352.812V108.105Z" fill="black"/>
<path d="M251.5 108.105H0.982422V50.4492H251.5V64.8633H15.7188V93.6914H251.5V108.105Z" fill="black"/>
<path d="M234.922 187.383H89.4004V129.727H234.922V187.383ZM104.137 172.969H220.185V144.141H104.137V172.969Z" fill="black"/>
<path d="M502.018 266.66H295.709V252.246H487.281V223.418H295.709V209.004H502.018V266.66Z" fill="black"/>
<path d="M251.5 266.66H137.293V209.004H251.5V223.418H152.03V252.246H251.5V266.66Z" fill="black"/>
<path d="M433.862 345.938H301.235V288.281H433.862V345.938ZM315.971 331.523H419.126V302.695H315.971V331.523Z" fill="black"/>
<path d="M376.759 425.215H295.709V410.801H362.022V381.973H295.709V367.559H376.759V425.215Z" fill="black"/>
<path d="M251.5 425.215H212.817V367.559H251.5V381.973H227.553V410.801H251.5V425.215Z" fill="black"/>
<path d="M280.786 0H266.05V14.4141H280.786V0Z" fill="black"/>
<path d="M192.555 490.078H0.982422V360.352H192.555V490.078ZM15.7188 475.664H177.818V374.766H15.7188V475.664Z" fill="black"/>
<path d="M45.1914 389.18H30.4551V403.594H45.1914V389.18Z" fill="#FF6969"/>
<path d="M45.1914 418.008H30.4551V432.422H45.1914V418.008Z" fill="#FDE21B"/>
<path d="M45.1914 446.836H30.4551V461.25H45.1914V446.836Z" fill="#1FB5F3"/>
<path d="M163.082 389.18H59.9277V403.594H163.082V389.18Z" fill="black"/>
<path d="M133.609 418.008H59.9277V432.422H133.609V418.008Z" fill="black"/>
<path d="M74.6641 446.836H59.9277V461.25H74.6641V446.836Z" fill="white"/>
<path d="M111.505 446.836H89.4004V461.25H111.505V446.836Z" fill="black"/>
<path d="M163.082 446.836H126.241V461.25H163.082V446.836Z" fill="black"/>
<path d="M163.082 418.008H148.346V432.422H163.082V418.008Z" fill="black"/>
</svg>
